<svg xmlns="http://www.w3.org/2000/svg" xmlns:xlink="http://www.w3.org/1999/xlink" width="866.187" height="94.878" viewBox="0 0 866.187 94.878">
  <defs>
    <clipPath id="clip-path">
      <rect id="Rectangle_59" data-name="Rectangle 59" width="866.187" height="94.878" transform="translate(0 0)" fill="none"/>
    </clipPath>
  </defs>
  <g id="Group_91" data-name="Group 91" transform="translate(0 0)">
    <path id="Path_321" data-name="Path 321" d="M67.8,4.665V73.644L13.915,4.665H0V94.878H13.282V24.547L68.055,94.878H81.083V4.665Z" fill="#fff"/>
    <g id="Group_90" data-name="Group 90">
      <g id="Group_89" data-name="Group 89" clip-path="url(#clip-path)">
        <path id="Path_322" data-name="Path 322" d="M99.277,49.64C99.277,23.153,118.5,4.4,146.839,4.4S194.4,23.153,194.4,49.64s-19.227,45.237-47.562,45.237S99.277,76.127,99.277,49.64m47.562,32.912c20.492,0,33.774-13.637,33.774-32.912,0-19.406-13.282-32.912-33.774-32.912S113.065,30.234,113.065,49.64c0,19.275,13.282,32.912,33.774,32.912" fill="#fff"/>
        <path id="Path_323" data-name="Path 323" d="M264.067,25.358,243.575,94.877H229.154l-27.7-90.213h14.8L236.871,77.3,258.248,4.664h11.638L291.264,77.3,311.882,4.664h14.674L298.98,94.877H284.559Z" fill="#fff"/>
        <path id="Path_324" data-name="Path 324" d="M410.151,17.246V4.666h-68.38v90.21h68.38V82.3h-54.88V55.116h48.11V42.536h-48.11V17.246Z" fill="#fff"/>
        <rect id="Rectangle_58" data-name="Rectangle 58" width="12" height="12" transform="translate(429.37 82.628)" fill="#fff"/>
        <path id="Path_325" data-name="Path 325" d="M508.442,43.295A13.3,13.3,0,0,0,501.55,35.6q-5.062-2.521-13.844-2.522t-13.9,2.587q-5.123,2.587-5.122,6.982a7.221,7.221,0,0,0,3.6,6.594q3.6,2.2,13.478,3.75l8.05,1.293q10.732,1.682,16.406,4.073t8.05,6.142a17.853,17.853,0,0,1,2.378,9.7q0,20.432-31.225,20.429-15,0-23.3-5.366T455.993,73.035h10.856q3.535,12.025,22.321,12.024,9.879,0,15.307-2.714t5.428-7.759a7.118,7.118,0,0,0-3.9-6.594q-3.906-2.2-14.514-3.879l-7.441-1.164q-10.245-1.678-15.795-4.137t-7.868-6.272a18.279,18.279,0,0,1-2.317-9.632q0-9.05,7.867-14.159t21.772-5.108q13.659,0,21.041,4.268t10.184,13.964Z" fill="#fff"/>
        <path id="Path_326" data-name="Path 326" d="M579.064,91.942a45,45,0,0,1-15.613,2.686q-10.369,0-15.247-5.506t-4.878-17.457v-38h-12.32V23.725h12.32V4.79h11.465V23.725h22.444v9.937H554.791V72.739q0,11.552,10.612,11.548a34.793,34.793,0,0,0,11.832-2.148Z" fill="#fff"/>
        <path id="Path_327" data-name="Path 327" d="M646.067,92.5V79.769a36.064,36.064,0,0,1-12.137,11.21,31.747,31.747,0,0,1-15.307,3.649q-12.2,0-18.723-6.7t-6.525-19.3V23.915h11.464V66.369q0,9.024,4.087,13.334t12.624,4.311q10.124,0,18.174-7.694a21.266,21.266,0,0,0,4.635-6.834,20.222,20.222,0,0,0,1.586-7.893V23.915h11.466V92.5Z" fill="#fff"/>
        <path id="Path_328" data-name="Path 328" d="M733.2,92.559V80.4a28.932,28.932,0,0,1-11.587,10.41,35.326,35.326,0,0,1-16.344,3.813,32.627,32.627,0,0,1-16.65-4.2,28.914,28.914,0,0,1-11.343-12.154,40.339,40.339,0,0,1-4.086-18.685A41.189,41.189,0,0,1,677.21,41.1,30.637,30.637,0,0,1,688.8,28.3a33.064,33.064,0,0,1,17.687-4.654q17.441,0,26.59,12.93V.237h11.465V92.559Zm0-35.3a24.132,24.132,0,0,0-6.342-16.809,19.67,19.67,0,0,0-7.5-5.108,26.364,26.364,0,0,0-9.7-1.745q-11.832,0-18.113,6.594T685.26,59.457q0,11.9,6.159,18.556T708.8,84.672a25.509,25.509,0,0,0,10-2,23.777,23.777,0,0,0,8.172-5.626A23.275,23.275,0,0,0,733.2,61.4Z" fill="#fff"/>
        <path id="Path_329" data-name="Path 329" d="M764.381,0h12.2V11.867h-12.2Zm.365,23.574h11.466V94.628H764.746Z" fill="#fff"/>
        <path id="Path_330" data-name="Path 330" d="M866.187,58.941A37.818,37.818,0,0,1,861.734,77.5,31.194,31.194,0,0,1,848.867,90.1a40.866,40.866,0,0,1-19.638,4.525A41.606,41.606,0,0,1,810.2,90.491a29.583,29.583,0,0,1-12.685-12.155Q793,70.321,793,59.329a37.794,37.794,0,0,1,4.452-18.554,31.209,31.209,0,0,1,12.867-12.608,40.863,40.863,0,0,1,19.638-4.526,41.586,41.586,0,0,1,19.028,4.139,29.625,29.625,0,0,1,12.686,12.153q4.511,8.021,4.513,19.008m-12.076.259q0-12.153-6.4-18.878T829.716,33.6q-11.709,0-18.174,6.659t-6.464,18.814q0,12.155,6.4,18.878t17.991,6.723q11.709,0,18.174-6.658T854.111,59.2" fill="#fff"/>
      </g>
    </g>
  </g>
</svg>
